<?xml version="1.0" encoding="utf-8"?>
<!-- Generator: Adobe Illustrator 19.0.0, SVG Export Plug-In . SVG Version: 6.00 Build 0)  -->
<svg version="1.1" id="Layer_1" xmlns="http://www.w3.org/2000/svg" xmlns:xlink="http://www.w3.org/1999/xlink" x="0px" y="0px"
	 viewBox="0 0 91.2 138.6" style="enable-background:new 0 0 91.2 138.6;" xml:space="preserve">
<style type="text/css">
	.st0{fill:url(#XMLID_36_);}
	.st1{fill:url(#XMLID_37_);}
	.st2{fill:url(#XMLID_38_);}
	.st3{fill:url(#XMLID_39_);}
	.st4{fill:url(#XMLID_40_);}
	.st5{fill-rule:evenodd;clip-rule:evenodd;fill:url(#XMLID_41_);}
	.st6{fill-rule:evenodd;clip-rule:evenodd;fill:url(#XMLID_42_);}
</style>
<g id="XMLID_2_">
	<linearGradient id="XMLID_36_" gradientUnits="userSpaceOnUse" x1="77.4113" y1="-42.0676" x2="18.3934" y2="74.9673">
		<stop  offset="5.376340e-003" style="stop-color:#BBBDBF"/>
		<stop  offset="1" style="stop-color:#404041"/>
	</linearGradient>
	<path id="XMLID_9_" class="st0" d="M65,16.5c-4.5-1.1-17.2-3-29.2-2.8C20.7,13.9,6.2,17,6.2,25.8c0,13.5-2.2,26.7,2.1,39.8
		c5.2,16.4,14.8,20.2,26,30.5c1.9,1.7,3.6,3.6,4.6,5.9c2.4,5,1.8,23.4-3.1,27.7c-0.5,0.5-1,0.8-1.3,0.9c-0.7,0.3-0.6,0.3,0,0
		c0.3-0.2,0.8-0.5,1.2-1c4.3-4.4,3.9-22.4,1.5-26.7c-6.4-11.7-23.9-13.2-32.3-36C0.2,54.1,0.5,37.5,0,23.9
		c-0.5-13,22.1-14.2,39.8-12.5C55.9,12.9,67.4,16.8,65,16.5z"/>
	<linearGradient id="XMLID_37_" gradientUnits="userSpaceOnUse" x1="88.9843" y1="-36.2319" x2="29.9662" y2="80.8034">
		<stop  offset="5.376340e-003" style="stop-color:#BBBDBF"/>
		<stop  offset="1" style="stop-color:#404041"/>
	</linearGradient>
	<path id="XMLID_8_" class="st1" d="M14.2,23c23.9,3.2,35.8,1.8,56.3-3.7c6.9-1.8,12.4-2.3,12.7,4.1c0.1,7.8-0.2,18.6-1.1,26.7
		c-1.4,12.2-5.2,23.8-13.8,33c-5.7,6.2-19.8,14.2-22.6,20.2c-2.8,6-2.3,23,3.5,27.2c1.4,1-1.2-0.7-1.4-0.9
		c-5.6-4.5-6.1-21.8-3.8-27.1C47,95.6,60.3,88,66.2,81.2c7.9-9,10.6-19.7,11.4-31.4C80.6,4.9,69.3,38.2,14.2,23z"/>
	<linearGradient id="XMLID_38_" gradientUnits="userSpaceOnUse" x1="120.996" y1="-20.0845" x2="61.9792" y2="96.9483">
		<stop  offset="5.376340e-003" style="stop-color:#BBBDBF"/>
		<stop  offset="1" style="stop-color:#404041"/>
	</linearGradient>
	<path id="XMLID_7_" class="st2" d="M37.1,121.6c0.9,9.8-22.4,14.5-11.9,13.8c5.9-0.5,12.1-3,17.4-2.8c5,0.2,8.1,2.4,15.6,2.9
		c5.8,0.4,3.4-0.6,0-2.2c-4.7-2.1-12-5.9-11.8-11.6c0.4,5.9,10.1,9.6,14.9,11.7c4.9,2.1,5.8,4.8-3.2,4.9c-10.4,0.4-22.6,0.4-32.9,0
		c-9-0.4-6.5-3-1.2-5.4C29.5,130.4,37,126.4,37.1,121.6z"/>
	<linearGradient id="XMLID_39_" gradientUnits="userSpaceOnUse" x1="45.3725" y1="33.0713" x2="63.3793" y2="59.081">
		<stop  offset="0" style="stop-color:#EC1C24"/>
		<stop  offset="1" style="stop-color:#7A0608"/>
	</linearGradient>
	<path id="XMLID_6_" class="st3" d="M44.2,46.9c-3,1.4-6.2,1.9-9.3,1.7c10.8,5.3,24.1,8.6,37.9-0.2c0.2-0.1,0.6-0.3,0.6-0.3
		C73.3,32,61.9,38.5,44.2,46.9z"/>
	<linearGradient id="XMLID_40_" gradientUnits="userSpaceOnUse" x1="39.8538" y1="36.1871" x2="47.1897" y2="102.8769">
		<stop  offset="0" style="stop-color:#EC1C24"/>
		<stop  offset="1" style="stop-color:#AD1B1F"/>
	</linearGradient>
	<path id="XMLID_5_" class="st4" d="M34.9,50.7C20.2,43.5,10.1,32.6,9.8,44c-0.2,7.5,0,14.4,2.4,21.9c0.1,0.2,0.1,0.5,0.2,0.7
		c1.2,4.3,3.4,8.6,7.3,13.1c5.3,6.1,10.9,10.6,17,15.2c3.3,2.5,6,3.9,9,0.2c8.4-10.2,22.9-12.7,26.6-35.9c0.4-2.7,0.8-5.6,0.9-8.8
		C59.4,59.4,45.8,56.1,34.9,50.7z"/>
	<linearGradient id="XMLID_41_" gradientUnits="userSpaceOnUse" x1="69.8738" y1="5.1659" x2="75.6095" y2="5.1659">
		<stop  offset="0" style="stop-color:#EC1C24"/>
		<stop  offset="1" style="stop-color:#AD1B1F"/>
	</linearGradient>
	<path id="XMLID_4_" class="st5" d="M69.9,2.5c0.2-1.9,2-2.5,3-2.5c1,0,4.8-0.5,1.2,3.7c-3.6,4.2-0.4,7.7-2,6.4
		C70.4,8.7,69.7,4.3,69.9,2.5z"/>
	<linearGradient id="XMLID_42_" gradientUnits="userSpaceOnUse" x1="76.0755" y1="7.9463" x2="91.248" y2="7.9463">
		<stop  offset="0" style="stop-color:#EC1C24"/>
		<stop  offset="1" style="stop-color:#AD1B1F"/>
	</linearGradient>
	<path id="XMLID_3_" class="st6" d="M83.9,3c2.6-1.5,6.1-0.9,5.9,1.6c-0.2,2.5,5.1,5.8-3.6,4.9c-8.7-0.9-10.3,6.6-10.1,3.2
		C76.3,9.4,81.3,4.5,83.9,3z"/>
</g>
</svg>
