<?xml version="1.0" encoding="utf-8"?>
<!-- Generator: Adobe Illustrator 19.0.0, SVG Export Plug-In . SVG Version: 6.00 Build 0)  -->
<svg version="1.1" id="Layer_1" xmlns="http://www.w3.org/2000/svg" xmlns:xlink="http://www.w3.org/1999/xlink" x="0px" y="0px"
	 viewBox="0 0 596.5 138.6" style="enable-background:new 0 0 596.5 138.6;" xml:space="preserve">
<style type="text/css">
	.st0{fill:url(#XMLID_103_);}
	.st1{fill:url(#XMLID_104_);}
	.st2{fill:url(#XMLID_105_);}
	.st3{fill:url(#XMLID_106_);}
	.st4{fill:url(#XMLID_107_);}
	.st5{fill-rule:evenodd;clip-rule:evenodd;fill:url(#XMLID_108_);}
	.st6{fill-rule:evenodd;clip-rule:evenodd;fill:url(#XMLID_109_);}
	.st7{fill:#BE1E2D;}
	.st8{fill:#404041;}
	.st9{fill:#58595B;}
</style>
<g id="XMLID_11_">
	<g id="XMLID_15_">
		<linearGradient id="XMLID_103_" gradientUnits="userSpaceOnUse" x1="77.4113" y1="-42.0676" x2="18.3934" y2="74.9673">
			<stop  offset="5.376340e-003" style="stop-color:#BBBDBF"/>
			<stop  offset="1" style="stop-color:#404041"/>
		</linearGradient>
		<path id="XMLID_9_" class="st0" d="M65,16.5c-4.5-1.1-17.2-3-29.2-2.8C20.7,13.9,6.2,17,6.2,25.8c0,13.5-2.2,26.7,2.1,39.8
			c5.2,16.4,14.8,20.2,26,30.5c1.9,1.7,3.6,3.6,4.6,5.9c2.4,5,1.8,23.4-3.1,27.7c-0.5,0.5-1,0.8-1.3,0.9c-0.7,0.3-0.6,0.3,0,0
			c0.3-0.2,0.8-0.5,1.2-1c4.3-4.4,3.9-22.4,1.5-26.7c-6.4-11.7-23.9-13.2-32.3-36C0.2,54.1,0.5,37.5,0,23.9
			c-0.5-13,22.1-14.2,39.8-12.5C55.9,12.9,67.4,16.8,65,16.5z"/>
		<linearGradient id="XMLID_104_" gradientUnits="userSpaceOnUse" x1="88.9843" y1="-36.2319" x2="29.9662" y2="80.8034">
			<stop  offset="5.376340e-003" style="stop-color:#BBBDBF"/>
			<stop  offset="1" style="stop-color:#404041"/>
		</linearGradient>
		<path id="XMLID_8_" class="st1" d="M14.2,23c23.9,3.2,35.8,1.8,56.3-3.7c6.9-1.8,12.4-2.3,12.7,4.1c0.1,7.8-0.2,18.6-1.1,26.7
			c-1.4,12.2-5.2,23.8-13.8,33c-5.7,6.2-19.8,14.2-22.6,20.2c-2.8,6-2.3,23,3.5,27.2c1.4,1-1.2-0.7-1.4-0.9
			c-5.6-4.5-6.1-21.8-3.8-27.1C47,95.6,60.3,88,66.2,81.2c7.9-9,10.6-19.7,11.4-31.4C80.6,4.9,69.3,38.2,14.2,23z"/>
		<linearGradient id="XMLID_105_" gradientUnits="userSpaceOnUse" x1="120.996" y1="-20.0845" x2="61.9792" y2="96.9483">
			<stop  offset="5.376340e-003" style="stop-color:#BBBDBF"/>
			<stop  offset="1" style="stop-color:#404041"/>
		</linearGradient>
		<path id="XMLID_7_" class="st2" d="M37.1,121.6c0.9,9.8-22.4,14.5-11.9,13.8c5.9-0.5,12.1-3,17.4-2.8c5,0.2,8.1,2.4,15.6,2.9
			c5.8,0.4,3.4-0.6,0-2.2c-4.7-2.1-12-5.9-11.8-11.6c0.4,5.9,10.1,9.6,14.9,11.7c4.9,2.1,5.8,4.8-3.2,4.9c-10.4,0.4-22.6,0.4-32.9,0
			c-9-0.4-6.5-3-1.2-5.4C29.5,130.4,37,126.4,37.1,121.6z"/>
		<linearGradient id="XMLID_106_" gradientUnits="userSpaceOnUse" x1="45.3725" y1="33.0713" x2="63.3793" y2="59.081">
			<stop  offset="0" style="stop-color:#EC1C24"/>
			<stop  offset="1" style="stop-color:#7A0608"/>
		</linearGradient>
		<path id="XMLID_6_" class="st3" d="M44.2,46.9c-3,1.4-6.2,1.9-9.3,1.7c10.8,5.3,24.1,8.6,37.9-0.2c0.2-0.1,0.6-0.3,0.6-0.3
			C73.3,32,61.9,38.5,44.2,46.9z"/>
		<linearGradient id="XMLID_107_" gradientUnits="userSpaceOnUse" x1="39.8538" y1="36.1871" x2="47.1897" y2="102.8769">
			<stop  offset="0" style="stop-color:#EC1C24"/>
			<stop  offset="1" style="stop-color:#AD1B1F"/>
		</linearGradient>
		<path id="XMLID_5_" class="st4" d="M34.9,50.7C20.2,43.5,10.1,32.6,9.8,44c-0.2,7.5,0,14.4,2.4,21.9c0.1,0.2,0.1,0.5,0.2,0.7
			c1.2,4.3,3.4,8.6,7.3,13.1c5.3,6.1,10.9,10.6,17,15.2c3.3,2.5,6,3.9,9,0.2c8.4-10.2,22.9-12.7,26.6-35.9c0.4-2.7,0.8-5.6,0.9-8.8
			C59.4,59.4,45.8,56.1,34.9,50.7z"/>
		<linearGradient id="XMLID_108_" gradientUnits="userSpaceOnUse" x1="69.8738" y1="5.1659" x2="75.6095" y2="5.1659">
			<stop  offset="0" style="stop-color:#EC1C24"/>
			<stop  offset="1" style="stop-color:#AD1B1F"/>
		</linearGradient>
		<path id="XMLID_4_" class="st5" d="M69.9,2.5c0.2-1.9,2-2.5,3-2.5c1,0,4.8-0.5,1.2,3.7c-3.6,4.2-0.4,7.7-2,6.4
			C70.4,8.7,69.7,4.3,69.9,2.5z"/>
		<linearGradient id="XMLID_109_" gradientUnits="userSpaceOnUse" x1="76.0755" y1="7.9463" x2="91.248" y2="7.9463">
			<stop  offset="0" style="stop-color:#EC1C24"/>
			<stop  offset="1" style="stop-color:#AD1B1F"/>
		</linearGradient>
		<path id="XMLID_3_" class="st6" d="M83.9,3c2.6-1.5,6.1-0.9,5.9,1.6c-0.2,2.5,5.1,5.8-3.6,4.9c-8.7-0.9-10.3,6.6-10.1,3.2
			C76.3,9.4,81.3,4.5,83.9,3z"/>
	</g>
	<g id="XMLID_13_">
		<g id="XMLID_58_">
			<path id="XMLID_59_" class="st7" d="M105.3,35.8c-1-3.1-2-5.2-3.1-6c-0.9-0.6-2.6-0.8-3.4-0.8c-0.9,0-1.4-0.1-1.4-0.8
				c0-0.6,0.7-0.8,1.9-0.8c4.4,0,9.1,0.3,9.9,0.3s4.5-0.3,9.4-0.3c1.2,0,1.8,0.3,1.8,0.8c0,0.7-0.7,0.8-1.5,0.8
				c-0.7,0-1.5,0-2.1,0.3c-0.8,0.3-0.9,0.9-0.9,1.9c0,1.1,0.9,4,1.9,7.8c1.4,5.6,9.4,31.4,10.9,36.1h0.3l16.5-44.4
				c0.9-2.4,1.4-3.1,2.1-3.1c0.9,0,1.4,1.3,2.5,4l17.7,42.8h0.3c1.5-5.7,8.3-28.1,11.3-38.1c0.6-2,0.9-3.7,0.9-4.9
				c0-1.4-0.8-2.6-4.1-2.6c-0.9,0-1.4-0.3-1.4-0.8c0-0.6,0.7-0.8,2-0.8c4.5,0,8.1,0.3,8.8,0.3c0.6,0,4.3-0.3,7.1-0.3
				c0.9,0,1.5,0.2,1.5,0.7c0,0.6-0.4,0.9-1.2,0.9c-0.9,0-2,0.1-3,0.4c-2,0.8-3,4.2-4.8,9c-3.9,10.7-12.8,37.7-17,50.5
				c-0.9,3-1.4,4-2.5,4c-0.9,0-1.4-1-2.6-4.2L145,46.1h-0.2c-1.6,4.3-12.9,34.5-16.6,42.3c-1.6,3.5-2,4.5-3.1,4.5
				c-0.9,0-1.2-0.9-2-3.1L105.3,35.8z"/>
			<path id="XMLID_61_" class="st7" d="M203.4,58c0-11,0-13-0.1-15.3c-0.2-2.5-0.9-3.3-2.5-3.8c-0.9-0.3-1.8-0.3-2.7-0.3
				c-0.8,0-1.2-0.2-1.2-0.9c0-0.4,0.6-0.6,1.8-0.6c2.8,0,7.9,0.2,10,0.2c1.9,0,6.7-0.2,9.6-0.2c0.9,0,1.5,0.2,1.5,0.6
				c0,0.7-0.4,0.9-1.2,0.9s-1.4,0.1-2.2,0.3c-2,0.3-2.6,1.4-2.8,3.9c-0.2,2.3-0.2,4.3-0.2,15.3v12.8c0,7,0,12.8,0.3,15.8
				c0.3,2,0.8,3.1,3,3.4c1,0.2,2.7,0.3,3.8,0.3c0.9,0,1.2,0.4,1.2,0.8c0,0.5-0.6,0.8-1.4,0.8c-4.9,0-10-0.3-12.1-0.3
				c-1.7,0-6.8,0.3-9.8,0.3c-0.9,0-1.4-0.3-1.4-0.8c0-0.3,0.3-0.8,1.2-0.8c1.1,0,2-0.1,2.6-0.3c1.5-0.3,2-1.4,2.2-3.5
				c0.3-3,0.3-8.8,0.3-15.7V58z"/>
			<path id="XMLID_63_" class="st7" d="M242.6,81.9c0.2,5.6,1.1,7.3,2.5,7.8c1.3,0.4,2.7,0.5,3.9,0.5c0.9,0,1.3,0.3,1.3,0.8
				c0,0.6-0.7,0.8-1.7,0.8c-4.8,0-8.3-0.3-9.7-0.3c-0.7,0-4.3,0.3-8.1,0.3c-1,0-1.7-0.1-1.7-0.8c0-0.4,0.5-0.8,1.2-0.8
				c1,0,2.4-0.1,3.4-0.3c2-0.5,2.2-2.5,2.3-8.8l0.7-42.8c0-1.4,0.5-2.5,1.3-2.5c0.9,0,2,1.1,3.2,2.4c0.9,0.9,12.2,12.4,23,23
				c5.1,5,15,15.2,16.2,16.2h0.3L280,45.4c-0.1-4.4-0.8-5.7-2.5-6.4c-1.1-0.4-2.9-0.4-3.9-0.4c-0.9,0-1.2-0.3-1.2-0.8
				c0-0.6,0.8-0.7,1.9-0.7c3.9,0,7.9,0.2,9.5,0.2c0.8,0,3.7-0.2,7.3-0.2c1,0,1.7,0.1,1.7,0.7c0,0.4-0.4,0.8-1.3,0.8
				c-0.8,0-1.4,0-2.3,0.3c-2,0.6-2.6,1.9-2.7,6l-0.8,45.6c0,1.6-0.6,2.3-1.2,2.3c-1.3,0-2.3-0.8-3.1-1.5c-4.7-4.3-14-13.3-21.8-20.8
				c-8.2-7.8-16.1-16.6-17.5-17.9h-0.3L242.6,81.9z"/>
			<path id="XMLID_65_" class="st7" d="M309.4,58c0-11,0-13-0.1-15.3c-0.2-2.5-0.9-3.2-3.2-3.9c-0.6-0.2-1.9-0.3-3-0.3
				c-0.8,0-1.3-0.3-1.3-0.8c0-0.5,0.6-0.7,1.7-0.7c3.9,0,8.7,0.2,10.8,0.2c2.4,0,19,0.1,20.4,0c1.4-0.1,2.5-0.3,3.1-0.4
				c0.4-0.1,0.9-0.3,1.2-0.3c0.4,0,0.5,0.3,0.5,0.7c0,0.5-0.4,1.4-0.6,4.7c-0.1,0.8-0.3,3.9-0.4,4.8c-0.1,0.3-0.3,1.2-0.9,1.2
				c-0.5,0-0.6-0.3-0.6-0.9c0-0.5-0.1-1.8-0.5-2.6c-0.6-1.3-1.2-2.3-4.9-2.6c-1.3-0.2-10.2-0.3-11.7-0.3c-0.3,0-0.5,0.3-0.5,0.7
				v17.9c0,0.4,0.1,0.8,0.5,0.8c1.7,0,11.4,0,13.1-0.2c1.8-0.2,2.8-0.4,3.6-1.1c0.6-0.5,0.8-0.9,1.2-0.9c0.3,0,0.6,0.3,0.6,0.8
				c0,0.4-0.2,1.6-0.6,5.3c-0.2,1.4-0.3,4.3-0.3,4.8c0,0.6-0.1,1.6-0.8,1.6c-0.5,0-0.7-0.3-0.7-0.6c-0.1-0.8-0.1-1.7-0.3-2.6
				c-0.4-1.4-1.4-2.6-4.2-2.8c-1.4-0.2-9.9-0.3-11.7-0.3c-0.3,0-0.4,0.3-0.4,0.8V71c0,2.5-0.1,8.6,0,10.7c0.2,4.9,2.5,6,10.1,6
				c2,0,5.1-0.1,7.1-0.9c1.9-0.9,2.7-2.4,3.2-5.4c0.2-0.8,0.3-1.1,0.8-1.1c0.6,0,0.7,0.9,0.7,1.7c0,1.6-0.6,6.5-1,8
				c-0.5,1.9-1.2,1.9-4,1.9c-5.6,0-10.1-0.1-13.8-0.3c-3.7-0.1-6.5-0.2-8.7-0.2c-0.8,0-2.5,0.1-4.3,0.1c-1.8,0.1-3.7,0.2-5.2,0.2
				c-0.9,0-1.4-0.3-1.4-0.8c0-0.3,0.3-0.8,1.2-0.8c1.1,0,2-0.1,2.6-0.3c1.5-0.3,2-1.7,2.2-3.8c0.3-3.1,0.3-8.8,0.3-15.4V58z"/>
			<path id="XMLID_67_" class="st8" d="M371.4,32.3l-12.7,0.3c-4.9,0.2-7,0.6-8.2,2.5c-0.8,1.3-1.3,2.3-1.4,3c-0.2,0.7-0.4,1-0.9,1
				c-0.6,0-0.8-0.4-0.8-1.4c0-1.4,1.6-9.1,1.8-9.8c0.3-1.1,0.5-1.6,1-1.6c0.7,0,1.5,0.9,3.7,1c2.5,0.3,5.7,0.4,8.5,0.4H396
				c2.7,0,4.6-0.3,5.9-0.4c1.3-0.3,2-0.4,2.3-0.4c0.6,0,0.7,0.5,0.7,1.8c0,1.8-0.3,7.7-0.3,9.9c-0.1,0.9-0.3,1.4-0.8,1.4
				c-0.7,0-0.9-0.4-0.9-1.7l-0.1-0.9c-0.2-2.2-2.5-4.6-10-4.8L382,32.3v34.9c0,7.8,0,14.5,0.4,18.2c0.3,2.4,0.8,4.3,3.3,4.6
				c1.2,0.2,3.1,0.3,4.3,0.3c0.9,0,1.4,0.3,1.4,0.7c0,0.6-0.7,0.8-1.6,0.8c-5.6,0-11-0.3-13.3-0.3c-2,0-7.3,0.3-10.7,0.3
				c-1.1,0-1.7-0.3-1.7-0.8c0-0.4,0.3-0.7,1.4-0.7c1.3,0,2.3-0.2,3.1-0.3c1.7-0.3,2.2-2.2,2.5-4.7c0.4-3.6,0.4-10.3,0.4-18.1V32.3z"
				/>
			<path id="XMLID_69_" class="st8" d="M415.2,73.5c-0.4,0-0.5,0.1-0.7,0.5l-4,9.8c-0.8,1.8-1.1,3.6-1.1,4.4c0,1.3,0.7,2,3,2h1.1
				c0.9,0,1.1,0.3,1.1,0.8c0,0.6-0.4,0.8-1.2,0.8c-2.5,0-6-0.3-8.3-0.3c-0.8,0-4.8,0.3-8.7,0.3c-0.9,0-1.4-0.2-1.4-0.8
				c0-0.4,0.3-0.8,0.9-0.8c0.7,0,1.5-0.1,2.2-0.1c3.4-0.5,4.7-2.7,6.2-6.4l19.6-45.1c0.9-2,1.4-2.9,2.2-2.9c1.1,0,1.4,0.7,2.2,2.3
				c1.8,4,14.3,33.2,19,44.2c2.9,6.5,5,7.5,6.4,7.7c1.1,0.2,2,0.3,2.8,0.3c0.7,0,1,0.3,1,0.8c0,0.6-0.4,0.8-3.2,0.8
				c-2.6,0-8.1,0-14.4-0.2c-1.4-0.1-2.2-0.1-2.2-0.6c0-0.4,0.2-0.7,0.9-0.8c0.5-0.1,1-0.8,0.7-1.6L433.6,74
				c-0.2-0.4-0.4-0.5-0.8-0.5H415.2z M431.2,69.5c0.3,0,0.4-0.2,0.3-0.4L424.5,51c-0.1-0.3-0.2-0.7-0.3-0.7c-0.3,0-0.3,0.4-0.4,0.7
				l-7.2,18c-0.2,0.3,0,0.5,0.3,0.5H431.2z"/>
			<path id="XMLID_72_" class="st8" d="M460.8,90.8c-1.2-0.5-1.4-0.9-1.4-2.5c0-3.9,0.3-8.4,0.4-9.6c0-1.1,0.3-1.9,0.9-1.9
				c0.7,0,0.8,0.7,0.8,1.2c0,0.9,0.3,2.5,0.7,3.7c1.6,5.4,7.2,7.1,11.9,7.1c6.5,0,10.4-4.1,10.4-9.2c0-3.1-0.8-6.3-7.4-10.2
				l-4.3-2.6c-8.8-5.2-11.7-10-11.7-16.4c0-8.8,8.5-14.5,18.9-14.5c4.8,0,8.7,0.7,10.6,1.2c0.7,0.2,1,0.4,1,0.9c0,0.9-0.3,3-0.3,8.7
				c0,1.5-0.3,2.3-0.9,2.3c-0.5,0-0.8-0.4-0.8-1.3c0-0.7-0.3-2.9-2-4.8c-1.1-1.4-3.5-3.4-8.3-3.4c-5.4,0-10.2,2.8-10.2,7.7
				c0,3.2,1.2,5.8,7.9,9.5l3.1,1.7c9.9,5.4,12.9,11,12.9,17.5c0,5.4-2,9.7-7.5,13.5c-3.6,2.5-8.5,3-12.5,3
				C468.6,92.7,464,92.3,460.8,90.8z"/>
			<path id="XMLID_74_" class="st8" d="M520.7,41.5l-11.1,0.3c-4.3,0.1-6.1,0.6-7.2,2.2c-0.8,1-1.1,2-1.3,2.5
				c-0.2,0.6-0.3,0.9-0.8,0.9s-0.7-0.4-0.7-1.2c0-1.2,1.4-8.2,1.6-8.8c0.2-0.9,0.4-1.4,0.9-1.4c0.6,0,1.4,0.6,3.2,0.9
				c2.2,0.3,5,0.3,7.5,0.3H543c2.4,0,4-0.2,5.1-0.3c1.2-0.2,1.8-0.3,2-0.3c0.5,0,0.6,0.4,0.6,1.5c0,1.5-0.2,6.9-0.2,8.8
				c-0.1,0.8-0.3,1.2-0.7,1.2c-0.6,0-0.8-0.3-0.8-1.4l-0.1-0.8c-0.2-1.9-2.1-4.1-8.8-4.2l-9.4-0.2v29.2c0,6.6,0.1,12.3,0.4,15.5
				c0.3,2,0.7,3.4,2.9,3.7c1,0.2,2.7,0.3,3.8,0.3c0.8,0,1.2,0.4,1.2,0.8c0,0.5-0.6,0.8-1.4,0.8c-4.9,0-9.9-0.3-12.1-0.3
				c-1.7,0-6.8,0.3-9.8,0.3c-0.9,0-1.4-0.3-1.4-0.8c0-0.3,0.3-0.8,1.2-0.8c1.1,0,2-0.1,2.6-0.3c1.5-0.3,2-1.7,2.2-3.8
				c0.3-3.1,0.3-8.8,0.3-15.4V41.5z"/>
			<path id="XMLID_76_" class="st8" d="M564.6,58c0-11,0-13-0.1-15.3c-0.2-2.5-0.9-3.2-3.2-3.9c-0.6-0.2-1.9-0.3-3-0.3
				c-0.8,0-1.3-0.3-1.3-0.8c0-0.5,0.6-0.7,1.7-0.7c3.9,0,8.7,0.2,10.8,0.2c2.4,0,19,0.1,20.4,0c1.4-0.1,2.5-0.3,3.1-0.4
				c0.4-0.1,0.9-0.3,1.2-0.3c0.4,0,0.5,0.3,0.5,0.7c0,0.5-0.4,1.4-0.6,4.7c-0.1,0.8-0.3,3.9-0.4,4.8c-0.1,0.3-0.3,1.2-0.9,1.2
				c-0.5,0-0.6-0.3-0.6-0.9c0-0.5-0.1-1.8-0.5-2.6c-0.6-1.3-1.2-2.3-4.9-2.6c-1.3-0.2-10.2-0.3-11.7-0.3c-0.3,0-0.5,0.3-0.5,0.7
				v17.9c0,0.4,0.1,0.8,0.5,0.8c1.7,0,11.4,0,13.1-0.2c1.8-0.2,2.8-0.4,3.6-1.1c0.6-0.5,0.8-0.9,1.2-0.9c0.3,0,0.6,0.3,0.6,0.8
				c0,0.4-0.2,1.6-0.6,5.3c-0.2,1.4-0.3,4.3-0.3,4.8c0,0.6-0.1,1.6-0.8,1.6c-0.5,0-0.7-0.3-0.7-0.6c-0.1-0.8-0.1-1.7-0.3-2.6
				c-0.4-1.4-1.4-2.6-4.2-2.8c-1.4-0.2-9.9-0.3-11.7-0.3c-0.3,0-0.4,0.3-0.4,0.8V71c0,2.5-0.1,8.6,0,10.7c0.2,4.9,2.5,6,10.1,6
				c2,0,5.1-0.1,7.1-0.9c1.9-0.9,2.7-2.4,3.2-5.4c0.2-0.8,0.3-1.1,0.8-1.1c0.6,0,0.7,0.9,0.7,1.7c0,1.6-0.6,6.5-1,8
				c-0.5,1.9-1.2,1.9-4,1.9c-5.6,0-10.1-0.1-13.8-0.3c-3.7-0.1-6.5-0.2-8.7-0.2c-0.8,0-2.5,0.1-4.3,0.1c-1.8,0.1-3.7,0.2-5.2,0.2
				c-0.9,0-1.4-0.3-1.4-0.8c0-0.3,0.3-0.8,1.2-0.8c1.1,0,2-0.1,2.6-0.3c1.5-0.3,2-1.7,2.2-3.8c0.3-3.1,0.3-8.8,0.3-15.4V58z"/>
		</g>
	</g>
	<g id="XMLID_10_">
		<path id="XMLID_12_" class="st9" d="M149,113.4c0,3.8-1.2,6.9-3.6,9.4c-2.3,2.4-5.1,3.6-8.5,3.6c-3.3,0-6.1-1-8.5-3.1
			c-2.6-2.3-3.9-5.2-3.9-8.9c0-3.4,1.2-6.3,3.7-8.7c2.5-2.4,5.4-3.6,8.6-3.6c1.8,0,3.4,0.3,4.9,1c1.5,0.7,2.9,1.8,4.3,3.4l-1.5,1.4
			c-0.9-1.1-2.1-2-3.5-2.7c-1.4-0.7-2.9-1-4.5-1c-2.6,0-4.9,1-7,3.1c-2.1,2.1-3.1,4.5-3.1,7.1c0,2.8,1,5.2,3.1,7.1
			c2.1,1.9,4.5,2.8,7.2,2.8c2.4,0,4.6-0.9,6.6-2.6c1.9-1.7,3-3.8,3.3-6.3h-16.3v-1.9H149z"/>
		<path id="XMLID_16_" class="st9" d="M165.7,110c-2.1,0.6-3.7,1.5-4.7,2.7c-1,1.2-1.5,2.9-1.5,5v8.1h-2v-17.5h2v3.8
			c0.7-1.3,1.6-2.3,2.7-3c1.1-0.7,2.3-1.1,3.6-1.3V110z"/>
		<path id="XMLID_18_" class="st9" d="M190.1,118.2h-14.7v-1.9H188c-0.2-1.7-1-3.2-2.4-4.5s-3-1.9-4.8-1.9c-1.9,0-3.5,0.7-4.9,2.2
			c-1.4,1.4-2.1,3.1-2.1,5c0,1.9,0.7,3.6,2.1,5c1.4,1.4,3,2.1,5,2.1c1.1,0,2-0.2,2.9-0.5c0.9-0.3,1.7-0.9,2.5-1.7l1.5,1.3
			c-0.8,1-1.9,1.7-3.1,2.2c-1.2,0.5-2.5,0.8-3.9,0.8c-2.4,0-4.6-0.9-6.3-2.7c-1.8-1.8-2.7-3.9-2.7-6.3c0-2.3,0.9-4.4,2.7-6.3
			c1.9-2,4.1-3,6.7-3c2.2,0,4.2,0.8,6.1,2.4c2.1,1.8,3.1,3.9,3.1,6.4c0,0.3,0,0.6,0,0.8C190.2,117.9,190.1,118.1,190.1,118.2z"/>
		<path id="XMLID_20_" class="st9" d="M215.9,125.9h-2v-2.7c0-0.8,0.1-1.5,0.4-2.2c-0.9,1.7-1.8,3-2.9,3.8c-1.2,1-2.7,1.4-4.5,1.4
			c-2.4,0-4.6-0.9-6.5-2.8c-1.9-1.8-2.8-4-2.8-6.5c0-2.4,1-4.5,2.9-6.3c1.9-1.9,4.1-2.8,6.4-2.8c1.7,0,3.2,0.5,4.5,1.4
			c1.3,0.9,2.3,2.2,2.9,3.9c-0.1-0.2-0.1-0.4-0.2-0.7c-0.1-0.3-0.1-0.5-0.1-0.7l-0.1-3.3h2V125.9z M213.9,117c0-1.9-0.7-3.6-2.2-5
			s-3.2-2.1-5.1-2.1c-1.9,0-3.5,0.7-4.8,2.1s-2,3.1-2,5.1s0.6,3.7,1.9,5s3,2,5,2c2.2,0,4-0.7,5.3-2.1
			C213.3,120.7,213.9,119,213.9,117z"/>
		<path id="XMLID_23_" class="st9" d="M232.3,110.4h-4.2v15.6h-2v-15.6h-2.8v-1.9h2.8v-5.9h2v5.9h4.2V110.4z"/>
		<path id="XMLID_25_" class="st9" d="M277.7,108.4l-6.9,18.4l-6.7-14.6l-6.8,14.5l-6.6-18.3l2.1,0l4.7,13.2l6.6-14.1l6.6,14.3
			l4.8-13.4L277.7,108.4z"/>
		<path id="XMLID_27_" class="st9" d="M286.7,106.1h-2v-3.5h2V106.1z M286.7,125.9h-2v-17.5h2V125.9z"/>
		<path id="XMLID_30_" class="st9" d="M311.8,125.9h-2.1v-9.7c0-1.9-0.5-3.4-1.5-4.6c-1-1.1-2.4-1.7-4-1.7c-1.5,0-2.8,0.6-3.9,1.7
			c-1.1,1.2-1.7,2.7-1.7,4.5v9.7h-2v-17.5h2v1.8c0,0.3,0,0.7-0.1,1.1s-0.2,0.9-0.3,1.5c0.3-1.4,1.1-2.6,2.2-3.5
			c1.1-0.9,2.5-1.4,4.1-1.4c2,0,3.7,0.7,5.1,2.1c1.5,1.5,2.3,3.5,2.3,6V125.9z"/>
		<path id="XMLID_32_" class="st9" d="M339,118.2h-14.7v-1.9h12.5c-0.2-1.7-1-3.2-2.4-4.5c-1.5-1.3-3-1.9-4.8-1.9
			c-1.9,0-3.5,0.7-4.9,2.2c-1.4,1.4-2.1,3.1-2.1,5c0,1.9,0.7,3.6,2.1,5c1.4,1.4,3,2.1,5,2.1c1.1,0,2-0.2,2.9-0.5s1.7-0.9,2.5-1.7
			l1.5,1.3c-0.8,1-1.9,1.7-3.1,2.2c-1.2,0.5-2.5,0.8-3.9,0.8c-2.4,0-4.5-0.9-6.3-2.7s-2.7-3.9-2.7-6.3c0-2.3,0.9-4.4,2.7-6.3
			c1.9-2,4.1-3,6.7-3c2.2,0,4.2,0.8,6.1,2.4c2.1,1.8,3.1,3.9,3.1,6.4c0,0.3,0,0.6,0,0.8C339.1,117.9,339,118.1,339,118.2z"/>
		<path id="XMLID_34_" class="st9" d="M358,121.1c0,1.4-0.6,2.7-1.7,3.7s-2.5,1.6-4,1.6c-1.7,0-3.2-0.5-4.3-1.4
			c-1.1-0.9-1.6-2.2-1.6-3.9h2c0.4,2.2,1.7,3.3,3.9,3.3c1.2,0,2.1-0.3,2.6-1c0.4-0.5,0.7-1.2,0.9-2.3c0-0.8-0.2-1.4-0.6-2
			c-0.4-0.5-1-0.9-1.8-1.1l-1.4-0.4c-1.7-0.5-3-1.1-3.9-1.9c-0.8-0.8-1.2-1.7-1.2-2.9c0-1.3,0.5-2.5,1.4-3.4s2.2-1.4,3.8-1.4
			s2.9,0.5,3.9,1.4c1,0.9,1.5,2.1,1.5,3.4h-2.1c0-0.9-0.3-1.6-0.9-2.2c-0.6-0.6-1.4-0.9-2.3-0.9c-0.1,0-0.2,0-0.4,0
			c-0.8,0-1.4,0.3-2,1c-0.6,0.7-0.8,1.3-0.8,2s0.3,1.2,0.9,1.7c0.6,0.5,1.5,0.9,2.6,1.2l1.6,0.4c1.2,0.3,2.2,0.9,2.8,1.7
			C357.6,118.9,358,119.9,358,121.1z"/>
		<path id="XMLID_36_" class="st9" d="M387.8,110.4h-4.2v15.6h-2v-15.6h-2.8v-1.9h2.8v-5.9h2v5.9h4.2V110.4z"/>
		<path id="XMLID_38_" class="st9" d="M412,118.2h-14.7v-1.9h12.5c-0.2-1.7-1-3.2-2.4-4.5c-1.5-1.3-3-1.9-4.8-1.9
			c-1.9,0-3.5,0.7-4.9,2.2c-1.4,1.4-2.1,3.1-2.1,5c0,1.9,0.7,3.6,2.1,5c1.4,1.4,3,2.1,5,2.1c1.1,0,2-0.2,2.9-0.5s1.7-0.9,2.5-1.7
			l1.5,1.3c-0.8,1-1.9,1.7-3.1,2.2c-1.2,0.5-2.5,0.8-3.9,0.8c-2.4,0-4.5-0.9-6.3-2.7s-2.7-3.9-2.7-6.3c0-2.3,0.9-4.4,2.7-6.3
			c1.9-2,4.1-3,6.7-3c2.2,0,4.2,0.8,6.1,2.4c2.1,1.8,3.1,3.9,3.1,6.4c0,0.3,0,0.6,0,0.8C412.1,117.9,412,118.1,412,118.2z"/>
		<path id="XMLID_40_" class="st9" d="M422.6,125.9h-2.1v-23.3h2.1V125.9z"/>
		<path id="XMLID_42_" class="st9" d="M434.6,125.9h-2.1v-23.3h2.1V125.9z"/>
		<path id="XMLID_44_" class="st9" d="M476.2,125.9h-2v-2.7c0-0.8,0.1-1.5,0.4-2.2c-0.9,1.7-1.8,3-2.9,3.8c-1.2,1-2.7,1.4-4.5,1.4
			c-2.4,0-4.6-0.9-6.5-2.8c-1.9-1.8-2.8-4-2.8-6.5c0-2.4,1-4.5,2.9-6.3c1.9-1.9,4.1-2.8,6.4-2.8c1.7,0,3.2,0.5,4.5,1.4
			c1.3,0.9,2.3,2.2,2.9,3.9c-0.1-0.2-0.1-0.4-0.2-0.7c-0.1-0.3-0.1-0.5-0.1-0.7l-0.1-3.3h2V125.9z M474.2,117c0-1.9-0.7-3.6-2.2-5
			s-3.2-2.1-5.1-2.1c-1.9,0-3.5,0.7-4.8,2.1s-2,3.1-2,5.1s0.6,3.7,1.9,5c1.3,1.4,3,2,5,2c2.2,0,4-0.7,5.3-2.1
			C473.6,120.7,474.2,119,474.2,117z"/>
		<path id="XMLID_47_" class="st9" d="M510.9,121.1c0,1.4-0.6,2.7-1.7,3.7s-2.5,1.6-4,1.6c-1.7,0-3.2-0.5-4.3-1.4
			c-1.1-0.9-1.6-2.2-1.6-3.9h2c0.4,2.2,1.7,3.3,3.9,3.3c1.2,0,2.1-0.3,2.6-1c0.4-0.5,0.7-1.2,0.9-2.3c0-0.8-0.2-1.4-0.6-2
			c-0.4-0.5-1-0.9-1.8-1.1l-1.4-0.4c-1.7-0.5-3-1.1-3.9-1.9c-0.8-0.8-1.2-1.7-1.2-2.9c0-1.3,0.5-2.5,1.4-3.4s2.2-1.4,3.8-1.4
			s2.9,0.5,3.9,1.4c1,0.9,1.5,2.1,1.5,3.4h-2.1c0-0.9-0.3-1.6-0.9-2.2c-0.6-0.6-1.4-0.9-2.3-0.9c-0.1,0-0.2,0-0.4,0
			c-0.8,0-1.4,0.3-2,1c-0.6,0.7-0.8,1.3-0.8,2s0.3,1.2,0.9,1.7c0.6,0.5,1.5,0.9,2.6,1.2l1.6,0.4c1.2,0.3,2.2,0.9,2.8,1.7
			C510.6,118.9,510.9,119.9,510.9,121.1z"/>
		<path id="XMLID_49_" class="st9" d="M526.2,110.4h-4.2v15.6h-2v-15.6h-2.8v-1.9h2.8v-5.9h2v5.9h4.2V110.4z"/>
		<path id="XMLID_51_" class="st9" d="M550.3,117.2c0,2.6-0.9,4.8-2.6,6.5c-1.8,1.7-3.9,2.6-6.6,2.6s-4.8-0.9-6.6-2.6
			c-1.8-1.7-2.6-3.9-2.6-6.5c0-2.6,0.9-4.8,2.6-6.5c1.7-1.7,3.9-2.6,6.6-2.6c2.6,0,4.8,0.9,6.5,2.6S550.3,114.6,550.3,117.2z
			 M548.3,117.2c0-2-0.7-3.7-2.1-5.1c-1.4-1.4-3.1-2.1-5.1-2.1s-3.7,0.7-5.1,2.1c-1.4,1.4-2.1,3.1-2.1,5.1s0.7,3.7,2.1,5.1
			s3.1,2.1,5.1,2.1c2,0,3.7-0.7,5.1-2.1S548.3,119.2,548.3,117.2z"/>
		<path id="XMLID_54_" class="st9" d="M567.3,110c-2.1,0.6-3.7,1.5-4.7,2.7c-1,1.2-1.5,2.9-1.5,5v8.1h-2v-17.5h2v3.8
			c0.7-1.3,1.6-2.3,2.7-3c1.1-0.7,2.3-1.1,3.6-1.3V110z"/>
		<path id="XMLID_56_" class="st9" d="M589.4,108.5l-12.3,23.3l-2.4,0l4.3-8l-7.7-15.3l2.2,0l6.7,13.2l7.1-13.2L589.4,108.5z"/>
	</g>
</g>
</svg>
